<svg xmlns="http://www.w3.org/2000/svg" xmlns:xlink="http://www.w3.org/1999/xlink" width="600" zoomAndPan="magnify" viewBox="0 0 450 225" height="300" preserveAspectRatio="xMidYMid meet" version="1.0"><defs><g/><clipPath id="dd88cb90f9"><path d="M 36.671875 60.503906 L 117 60.503906 L 117 141 L 36.671875 141 Z M 36.671875 60.503906 " clip-rule="nonzero"/></clipPath><clipPath id="89cd03b7e5"><path d="M 116 138 L 155.921875 138 L 155.921875 179 L 116 179 Z M 116 138 " clip-rule="nonzero"/></clipPath></defs><g clip-path="url(#dd88cb90f9)"><path fill="#f8ab37" d="M 76.570312 140.210938 C 54.59375 140.210938 36.710938 122.335938 36.710938 100.355469 C 36.710938 78.378906 54.589844 60.5 76.570312 60.5 C 98.546875 60.5 116.425781 78.378906 116.425781 100.355469 C 116.425781 122.335938 98.542969 140.210938 76.570312 140.210938 Z M 76.570312 67.054688 C 75.476562 67.054688 74.390625 67.109375 73.304688 67.214844 C 72.21875 67.324219 71.140625 67.480469 70.070312 67.695312 C 69.003906 67.90625 67.945312 68.171875 66.902344 68.488281 C 65.859375 68.804688 64.832031 69.171875 63.824219 69.589844 C 62.816406 70.007812 61.832031 70.472656 60.871094 70.988281 C 59.910156 71.5 58.972656 72.0625 58.066406 72.667969 C 57.160156 73.273438 56.285156 73.921875 55.441406 74.613281 C 54.601562 75.304688 53.792969 76.039062 53.019531 76.808594 C 52.25 77.578125 51.519531 78.386719 50.828125 79.230469 C 50.136719 80.074219 49.484375 80.949219 48.878906 81.855469 C 48.273438 82.761719 47.714844 83.695312 47.199219 84.65625 C 46.6875 85.621094 46.21875 86.605469 45.800781 87.613281 C 45.386719 88.621094 45.019531 89.644531 44.703125 90.6875 C 44.386719 91.734375 44.121094 92.789062 43.90625 93.859375 C 43.695312 94.929688 43.535156 96.007812 43.429688 97.09375 C 43.320312 98.175781 43.269531 99.265625 43.269531 100.355469 C 43.269531 101.445312 43.320312 102.535156 43.429688 103.621094 C 43.535156 104.707031 43.695312 105.78125 43.90625 106.851562 C 44.121094 107.921875 44.386719 108.980469 44.703125 110.023438 C 45.019531 111.066406 45.386719 112.09375 45.800781 113.101562 C 46.21875 114.109375 46.6875 115.09375 47.199219 116.054688 C 47.714844 117.015625 48.273438 117.949219 48.878906 118.855469 C 49.484375 119.765625 50.136719 120.640625 50.828125 121.480469 C 51.519531 122.324219 52.25 123.132812 53.019531 123.902344 C 53.792969 124.675781 54.601562 125.40625 55.441406 126.097656 C 56.285156 126.789062 57.160156 127.4375 58.066406 128.042969 C 58.972656 128.652344 59.910156 129.210938 60.871094 129.726562 C 61.832031 130.238281 62.816406 130.703125 63.824219 131.121094 C 64.832031 131.539062 65.859375 131.90625 66.902344 132.222656 C 67.945312 132.539062 69.003906 132.804688 70.070312 133.015625 C 71.140625 133.230469 72.21875 133.390625 73.304688 133.496094 C 74.390625 133.605469 75.476562 133.65625 76.570312 133.65625 C 77.660156 133.65625 78.746094 133.605469 79.832031 133.496094 C 80.917969 133.390625 81.996094 133.230469 83.066406 133.015625 C 84.136719 132.804688 85.191406 132.539062 86.234375 132.222656 C 87.277344 131.90625 88.304688 131.539062 89.3125 131.121094 C 90.320312 130.703125 91.304688 130.238281 92.265625 129.726562 C 93.230469 129.210938 94.164062 128.652344 95.070312 128.042969 C 95.976562 127.4375 96.851562 126.789062 97.695312 126.097656 C 98.539062 125.40625 99.34375 124.675781 100.117188 123.902344 C 100.886719 123.132812 101.617188 122.324219 102.3125 121.480469 C 103.003906 120.640625 103.652344 119.765625 104.257812 118.855469 C 104.863281 117.949219 105.421875 117.015625 105.9375 116.054688 C 106.453125 115.09375 106.917969 114.109375 107.335938 113.101562 C 107.753906 112.09375 108.121094 111.066406 108.4375 110.023438 C 108.753906 108.980469 109.015625 107.921875 109.230469 106.851562 C 109.441406 105.78125 109.601562 104.707031 109.710938 103.621094 C 109.816406 102.535156 109.871094 101.445312 109.871094 100.355469 C 109.867188 99.265625 109.8125 98.179688 109.707031 97.09375 C 109.597656 96.007812 109.4375 94.933594 109.222656 93.863281 C 109.007812 92.792969 108.742188 91.738281 108.425781 90.695312 C 108.109375 89.652344 107.742188 88.625 107.324219 87.621094 C 106.90625 86.613281 106.441406 85.628906 105.925781 84.667969 C 105.410156 83.707031 104.851562 82.773438 104.246094 81.867188 C 103.636719 80.960938 102.988281 80.085938 102.296875 79.242188 C 101.605469 78.402344 100.875 77.59375 100.105469 76.824219 C 99.332031 76.050781 98.527344 75.320312 97.683594 74.628906 C 96.839844 73.9375 95.964844 73.289062 95.058594 72.683594 C 94.152344 72.078125 93.21875 71.515625 92.257812 71.003906 C 91.296875 70.488281 90.3125 70.023438 89.304688 69.605469 C 88.296875 69.1875 87.273438 68.820312 86.230469 68.503906 C 85.1875 68.183594 84.132812 67.917969 83.0625 67.707031 C 81.992188 67.492188 80.917969 67.332031 79.832031 67.222656 C 78.746094 67.117188 77.660156 67.0625 76.570312 67.058594 Z M 76.570312 67.054688 " fill-opacity="1" fill-rule="nonzero"/></g><path fill="#f8ab37" d="M 105.347656 144.519531 C 104.988281 144.519531 104.632812 144.46875 104.285156 144.363281 C 103.9375 144.257812 103.613281 144.105469 103.3125 143.902344 C 103.011719 143.703125 102.746094 143.460938 102.515625 143.183594 C 102.285156 142.902344 102.097656 142.597656 101.960938 142.261719 C 101.820312 141.925781 101.734375 141.578125 101.695312 141.21875 C 101.660156 140.859375 101.675781 140.5 101.746094 140.144531 C 101.816406 139.789062 101.9375 139.449219 102.105469 139.128906 C 102.273438 138.808594 102.488281 138.519531 102.742188 138.265625 L 112.894531 128.039062 C 113.058594 127.851562 113.242188 127.679688 113.441406 127.53125 C 113.640625 127.378906 113.851562 127.25 114.078125 127.144531 C 114.304688 127.039062 114.539062 126.953125 114.78125 126.894531 C 115.023438 126.835938 115.273438 126.800781 115.523438 126.792969 C 115.769531 126.785156 116.019531 126.800781 116.265625 126.84375 C 116.511719 126.886719 116.753906 126.953125 116.984375 127.042969 C 117.21875 127.132812 117.441406 127.246094 117.648438 127.382812 C 117.859375 127.519531 118.050781 127.675781 118.230469 127.851562 C 118.410156 128.027344 118.566406 128.21875 118.707031 128.425781 C 118.84375 128.636719 118.960938 128.855469 119.054688 129.085938 C 119.148438 129.320312 119.214844 129.558594 119.261719 129.804688 C 119.304688 130.050781 119.324219 130.296875 119.320312 130.546875 C 119.3125 130.796875 119.28125 131.042969 119.226562 131.289062 C 119.171875 131.53125 119.089844 131.765625 118.984375 131.996094 C 118.882812 132.222656 118.753906 132.4375 118.605469 132.636719 C 118.457031 132.839844 118.292969 133.023438 118.105469 133.191406 L 107.957031 143.417969 C 107.242188 144.148438 106.371094 144.515625 105.347656 144.519531 Z M 105.347656 144.519531 " fill-opacity="1" fill-rule="nonzero"/><g clip-path="url(#89cd03b7e5)"><path fill="#f8ab37" d="M 149.394531 178.945312 C 148.546875 178.945312 147.734375 178.78125 146.953125 178.453125 C 146.171875 178.125 145.484375 177.65625 144.894531 177.050781 L 117.886719 149.390625 C 117.597656 149.097656 117.339844 148.777344 117.113281 148.429688 C 116.886719 148.082031 116.699219 147.71875 116.546875 147.335938 C 116.390625 146.949219 116.277344 146.554688 116.199219 146.148438 C 116.125 145.742188 116.089844 145.332031 116.09375 144.921875 C 116.097656 144.507812 116.144531 144.097656 116.230469 143.695312 C 116.316406 143.289062 116.4375 142.898438 116.601562 142.519531 C 116.761719 142.136719 116.960938 141.777344 117.195312 141.4375 C 117.429688 141.09375 117.695312 140.78125 117.988281 140.492188 C 118.285156 140.203125 118.605469 139.945312 118.953125 139.71875 C 119.296875 139.496094 119.664062 139.304688 120.046875 139.152344 C 120.429688 138.996094 120.824219 138.882812 121.230469 138.808594 C 121.636719 138.730469 122.046875 138.695312 122.460938 138.699219 C 122.875 138.703125 123.28125 138.75 123.6875 138.835938 C 124.09375 138.921875 124.484375 139.042969 124.863281 139.207031 C 125.242188 139.371094 125.605469 139.566406 125.945312 139.800781 C 126.285156 140.035156 126.601562 140.300781 126.890625 140.59375 L 153.898438 168.253906 C 154.332031 168.695312 154.691406 169.191406 154.976562 169.742188 C 155.261719 170.289062 155.464844 170.871094 155.578125 171.476562 C 155.695312 172.085938 155.71875 172.699219 155.652344 173.3125 C 155.589844 173.929688 155.4375 174.523438 155.195312 175.09375 C 154.957031 175.664062 154.636719 176.1875 154.242188 176.664062 C 153.847656 177.140625 153.390625 177.550781 152.875 177.894531 C 152.359375 178.234375 151.804688 178.496094 151.214844 178.675781 C 150.621094 178.855469 150.015625 178.945312 149.394531 178.945312 Z M 149.394531 178.945312 " fill-opacity="1" fill-rule="nonzero"/></g><path fill="#f8ab37" d="M 76.503906 128.429688 C 71.367188 128.429688 64.582031 126.957031 57.320312 121.371094 C 50.941406 116.464844 48.003906 108.921875 48.816406 99.558594 C 49.207031 95.230469 50.238281 91.054688 51.90625 87.039062 C 52.015625 86.804688 52.164062 86.597656 52.351562 86.417969 C 52.542969 86.242188 52.757812 86.105469 53.003906 86.015625 C 53.246094 85.921875 53.496094 85.882812 53.757812 85.890625 C 54.015625 85.898438 54.265625 85.953125 54.5 86.058594 C 54.738281 86.164062 54.945312 86.3125 55.125 86.5 C 55.304688 86.691406 55.441406 86.90625 55.535156 87.148438 C 55.625 87.390625 55.671875 87.640625 55.664062 87.902344 C 55.65625 88.160156 55.601562 88.410156 55.496094 88.648438 C 54.003906 92.292969 53.082031 96.074219 52.726562 99.996094 C 52.054688 108.019531 54.40625 114.152344 59.714844 118.246094 C 72.828125 128.335938 84.035156 123.121094 84.148438 123.066406 C 84.386719 122.945312 84.632812 122.878906 84.898438 122.859375 C 85.160156 122.839844 85.417969 122.871094 85.667969 122.957031 C 85.921875 123.042969 86.144531 123.171875 86.34375 123.347656 C 86.539062 123.519531 86.695312 123.726562 86.8125 123.964844 C 86.925781 124.203125 86.992188 124.457031 87.003906 124.71875 C 87.019531 124.984375 86.980469 125.238281 86.890625 125.488281 C 86.800781 125.738281 86.664062 125.957031 86.484375 126.152344 C 86.308594 126.347656 86.097656 126.5 85.855469 126.609375 C 85.574219 126.753906 81.980469 128.429688 76.503906 128.429688 Z M 76.503906 128.429688 " fill-opacity="1" fill-rule="nonzero"/><g fill="#00275b" fill-opacity="1"><g transform="translate(232.209004, 175.045997)"><g><path d="M 9.34375 -37 C 9.34375 -42.21875 14.125 -45.90625 20.53125 -46.046875 L 20.53125 -49.875 C 11.84375 -49.65625 4.859375 -44.65625 4.859375 -36.78125 C 4.859375 -27.875 12.875 -25.59375 20.53125 -23.46875 L 20.53125 -28.171875 C 14.484375 -29.859375 9.34375 -31.703125 9.34375 -37 Z M 34.875 -39.875 L 37.65625 -42.953125 C 34.140625 -47 28.984375 -49.5 22.359375 -49.796875 L 22.359375 -45.96875 C 27.21875 -45.6875 31.625 -43.703125 34.875 -39.875 Z M 38.765625 -13.015625 C 38.765625 -22.875 30.234375 -25.453125 22.359375 -27.65625 L 22.359375 -22.953125 C 28.6875 -21.109375 34.359375 -19.046875 34.359375 -12.71875 C 34.359375 -8.609375 31.625 -3.234375 22.359375 -2.9375 L 22.359375 0.875 C 34.796875 0.515625 38.765625 -6.84375 38.765625 -13.015625 Z M 6.109375 -10.078125 L 3.390625 -6.921875 C 6.984375 -2.578125 12.796875 0.65625 20.53125 0.875 L 20.53125 -2.9375 C 13.984375 -3.234375 9.125 -6.625 6.109375 -10.078125 Z M 6.109375 -10.078125 "/></g></g></g><g fill="#00275b" fill-opacity="1"><g transform="translate(274.943809, 175.045997)"><g><path d="M 21.40625 -32.8125 C 25.3125 -32.8125 28.328125 -31.40625 30.890625 -27.875 L 33.765625 -30.375 C 30.890625 -33.984375 27.359375 -36.40625 21.1875 -36.40625 C 11.1875 -36.40625 4.484375 -28.90625 3.96875 -19.125 L 8.015625 -19.125 C 8.53125 -27 13.46875 -32.8125 21.40625 -32.8125 Z M 21.1875 0.875 C 27.359375 0.875 30.890625 -1.546875 33.765625 -5.21875 L 30.96875 -7.578125 C 28.390625 -4.046875 25.3125 -2.71875 21.40625 -2.71875 C 13.234375 -2.71875 8.234375 -8.90625 8.015625 -17.140625 L 3.96875 -17.140625 C 4.1875 -7.0625 10.890625 0.875 21.1875 0.875 Z M 21.1875 0.875 "/></g></g></g><g fill="#00275b" fill-opacity="1"><g transform="translate(311.279417, 175.045997)"><g><path d="M 3.96875 -17.796875 C 3.96875 -7.71875 10.078125 0.375 19.9375 0.875 L 19.9375 -2.578125 C 12.28125 -3.15625 8.015625 -10.15625 8.015625 -17.796875 C 8.015625 -25.375 12.28125 -32.375 19.9375 -32.875 L 19.9375 -36.40625 C 10.078125 -35.90625 3.96875 -27.8125 3.96875 -17.796875 Z M 38.109375 -17.796875 C 38.109375 -27.875 31.921875 -35.96875 21.921875 -36.40625 L 21.921875 -32.953125 C 29.71875 -32.4375 33.984375 -25.375 33.984375 -17.796875 C 33.984375 -10.15625 29.71875 -3.015625 21.921875 -2.578125 L 21.921875 0.875 C 31.921875 0.4375 38.109375 -7.71875 38.109375 -17.796875 Z M 38.109375 -17.796875 "/></g></g></g><g fill="#00275b" fill-opacity="1"><g transform="translate(353.278673, 175.045997)"><g><path d="M 17.734375 0.8125 C 21.78125 0.8125 25.59375 -1.328125 27.953125 -3.015625 L 27.953125 -7.875 C 25.59375 -5.59375 21.40625 -3.15625 18.46875 -3.15625 C 13.3125 -3.15625 9.9375 -5.734375 9.9375 -10.8125 L 9.9375 -35.53125 L 5.953125 -35.53125 L 5.953125 -9.859375 C 5.953125 -3.90625 11.1875 0.8125 17.734375 0.8125 Z M 33.765625 0 L 33.765625 -35.53125 L 29.796875 -35.53125 L 29.796875 0 Z M 33.765625 0 "/></g></g></g><g fill="#00275b" fill-opacity="1"><g transform="translate(392.997766, 175.045997)"><g><path d="M 6.6875 -35.53125 L 0.8125 -35.53125 L 0.8125 -32.140625 L 17.796875 -32.140625 L 17.796875 -35.53125 L 10.59375 -35.53125 L 10.59375 -45.234375 L 6.6875 -45.234375 Z M 13.6875 0.875 C 16.625 0.875 18.3125 0 19.71875 -1.328125 L 18.25 -4.265625 C 17.4375 -3.390625 15.96875 -2.578125 14.265625 -2.578125 C 11.765625 -2.578125 10.59375 -4.5625 10.59375 -7.4375 L 10.59375 -30.3125 L 6.6875 -30.3125 L 6.6875 -6.84375 C 6.6875 -1.984375 8.96875 0.875 13.6875 0.875 Z M 13.6875 0.875 "/></g></g></g><g fill="#00275b" fill-opacity="1"><g transform="translate(147.146117, 96.560447)"><g><path d="M 10.296875 -49.0625 L 6.109375 -49.0625 L 6.109375 0 L 10.296875 0 Z M 24.0625 -24.203125 L 12.0625 -24.203125 L 12.0625 -20.375 L 24.5 -20.375 C 33.390625 -20.375 39.203125 -27.4375 39.203125 -34.71875 C 39.203125 -43.109375 33.546875 -49.0625 24.5 -49.0625 L 12.0625 -49.0625 L 12.0625 -45.234375 L 24.0625 -45.234375 C 30.3125 -45.234375 34.796875 -41.421875 34.796875 -34.71875 C 34.796875 -29.28125 30.234375 -24.203125 24.0625 -24.203125 Z M 24.0625 -24.203125 "/></g></g></g><g fill="#00275b" fill-opacity="1"><g transform="translate(189.145373, 96.560447)"><g><path d="M 14.5625 -1.984375 L 16.625 -6.984375 L 4.78125 -35.53125 L 0.515625 -35.53125 Z M 4.265625 10.375 L 3.609375 13.90625 C 4.5625 14.203125 6.171875 14.421875 7.4375 14.421875 C 11.546875 14.421875 14.5625 12.28125 16.484375 7.796875 L 34.875 -35.53125 L 30.53125 -35.53125 L 12.796875 6.625 C 11.328125 10 9.703125 10.953125 7.359375 10.953125 C 6.46875 10.953125 5.078125 10.734375 4.265625 10.375 Z M 4.265625 10.375 "/></g></g></g><g fill="#00275b" fill-opacity="1"><g transform="translate(224.524792, 96.560447)"><g><path d="M 10.296875 -49.0625 L 6.109375 -49.0625 L 6.109375 0 L 10.296875 0 Z M 24.0625 -24.203125 L 12.0625 -24.203125 L 12.0625 -20.375 L 24.5 -20.375 C 33.390625 -20.375 39.203125 -27.4375 39.203125 -34.71875 C 39.203125 -43.109375 33.546875 -49.0625 24.5 -49.0625 L 12.0625 -49.0625 L 12.0625 -45.234375 L 24.0625 -45.234375 C 30.3125 -45.234375 34.796875 -41.421875 34.796875 -34.71875 C 34.796875 -29.28125 30.234375 -24.203125 24.0625 -24.203125 Z M 24.0625 -24.203125 "/></g></g></g><g fill="#00275b" fill-opacity="1"><g transform="translate(266.524049, 96.560447)"><g><path d="M 6.109375 -49.0625 L 6.109375 0 L 10.296875 0 L 10.296875 -49.0625 Z M 6.109375 -49.0625 "/></g></g></g></svg>
